<?xml version="1.0" encoding="utf-8"?>
<!-- Generator: Adobe Illustrator 17.1.0, SVG Export Plug-In . SVG Version: 6.00 Build 0)  -->
<!DOCTYPE svg PUBLIC "-//W3C//DTD SVG 1.1//EN" "http://www.w3.org/Graphics/SVG/1.1/DTD/svg11.dtd">
<svg version="1.1" id="Layer_1" xmlns="http://www.w3.org/2000/svg" xmlns:xlink="http://www.w3.org/1999/xlink" x="0px" y="0px"
	 width="37.6px" height="48.5px" viewBox="0 0 37.6 48.5" enable-background="new 0 0 37.6 48.5" xml:space="preserve">
<g>
	<path fill="#FFFFFF" d="M27.5,2v25.9h8L18.8,46.5L2,27.9h8.2V2H27.5 M35.5,27.9L35.5,27.9 M27.5,0H10.2c-1.1,0-2,0.9-2,2v23.9H2
		c-0.8,0-1.5,0.5-1.8,1.2c-0.3,0.7-0.2,1.6,0.3,2.2l16.8,18.6c0.4,0.4,0.9,0.7,1.5,0.7c0,0,0,0,0,0c0.6,0,1.1-0.2,1.5-0.7L37,29.3
		c0.3-0.4,0.6-0.8,0.6-1.4c0-1.1-0.9-2-2-2h0h-6V2C29.5,0.9,28.6,0,27.5,0L27.5,0z"/>
</g>
<g>
	<defs>
		<path id="SVGID_1_" d="M3.1,29.6L18,46c0.3,0.4,0.9,0.4,1.3,0l15.1-16.4c0.5-0.6,0.1-1.5-0.6-1.5h-6.5v-25c0-0.5-0.4-0.9-0.9-0.9
			H10.8c-0.5,0-0.9,0.4-0.9,0.9v25H3.8C3,28.1,2.6,29,3.1,29.6z"/>
	</defs>
	<clipPath id="SVGID_2_">
		<use xlink:href="#SVGID_1_"  overflow="visible"/>
	</clipPath>
	<g clip-path="url(#SVGID_2_)">
		<rect x="7.6" y="4.8" fill="#B4E2AF" width="22" height="2"/>
		<rect x="7.6" y="2" fill="#B4E2AF" width="22" height="2"/>
		<rect x="7.6" y="7.7" fill="#B4E2AF" width="22" height="2"/>
		<rect x="7.6" y="10.5" fill="#B4E2AF" width="22" height="2"/>
		<rect x="7.6" y="13.4" fill="#B4E2AF" width="22" height="2"/>
		<rect x="7.6" y="16.2" fill="#B4E2AF" width="22" height="2"/>
		<rect x="7.6" y="19.1" fill="#B4E2AF" width="22" height="2"/>
		<rect x="7.6" y="21.9" fill="#B4E2AF" width="22" height="2"/>
		<rect x="7.6" y="24.7" fill="#B4E2AF" width="22" height="2"/>
		<rect x="1.8" y="27.6" fill="#B4E2AF" width="34" height="2"/>
		<polygon fill="#B4E2AF" points="31.9,32.4 5.7,32.4 4.1,30.4 33.7,30.4 		"/>
		<rect x="3.8" y="33.3" fill="#B4E2AF" width="29.6" height="2"/>
		<rect x="7.6" y="36.1" fill="#B4E2AF" width="22" height="2"/>
		<rect x="11.2" y="39" fill="#B4E2AF" width="14.8" height="2"/>
		<rect x="13.9" y="41.8" fill="#B4E2AF" width="9.4" height="2"/>
		<rect x="16.8" y="44.7" fill="#B4E2AF" width="3.7" height="2"/>
	</g>
</g>
</svg>
