<?xml version="1.0" encoding="utf-8"?>
<!-- Generator: Adobe Illustrator 17.1.0, SVG Export Plug-In . SVG Version: 6.00 Build 0)  -->
<!DOCTYPE svg PUBLIC "-//W3C//DTD SVG 1.1//EN" "http://www.w3.org/Graphics/SVG/1.1/DTD/svg11.dtd">
<svg version="1.1" id="Layer_1" xmlns="http://www.w3.org/2000/svg" xmlns:xlink="http://www.w3.org/1999/xlink" x="0px" y="0px"
	 width="128px" height="128px" viewBox="0 0 128 128" enable-background="new 0 0 128 128" xml:space="preserve">
<rect y="0.2" fill="#333333" width="128" height="128"/>
<g>
	<defs>
		<path id="SVGID_1_" d="M22.4,77.9l39.3,43.3c0.9,1,2.5,1,3.4,0l40-43.3c1.4-1.5,0.3-3.9-1.7-3.9H86.2V7.9c0-1.3-1-2.3-2.3-2.3
			H42.7c-1.3,0-2.3,1-2.3,2.3V74H24.1C22.1,74,21,76.4,22.4,77.9z"/>
	</defs>
	<clipPath id="SVGID_2_">
		<use xlink:href="#SVGID_1_"  overflow="visible"/>
	</clipPath>
	<g clip-path="url(#SVGID_2_)">
		<rect x="34.3" y="12.5" fill="#B4E2AF" width="58.1" height="5.2"/>
		<rect x="34.3" y="5" fill="#B4E2AF" width="58.1" height="5.2"/>
		<rect x="34.3" y="20.1" fill="#B4E2AF" width="58.1" height="5.2"/>
		<rect x="34.3" y="27.6" fill="#B4E2AF" width="58.1" height="5.2"/>
		<rect x="34.3" y="35.1" fill="#B4E2AF" width="58.1" height="5.2"/>
		<rect x="34.3" y="42.6" fill="#B4E2AF" width="58.1" height="5.2"/>
		<rect x="34.3" y="50.1" fill="#B4E2AF" width="58.1" height="5.2"/>
		<rect x="34.3" y="57.6" fill="#B4E2AF" width="58.1" height="5.2"/>
		<rect x="34.3" y="65.1" fill="#B4E2AF" width="58.1" height="5.2"/>
		<rect x="18.9" y="72.6" fill="#B4E2AF" width="89.7" height="5.2"/>
		<polygon fill="#B4E2AF" points="98.2,85.3 29.1,85.3 24.9,80.1 103,80.1 		"/>
		<rect x="24.3" y="87.6" fill="#B4E2AF" width="78.1" height="5.2"/>
		<rect x="34.3" y="95.1" fill="#B4E2AF" width="58.1" height="5.2"/>
		<rect x="43.9" y="102.6" fill="#B4E2AF" width="39.1" height="5.2"/>
		<rect x="51" y="110.2" fill="#B4E2AF" width="24.8" height="5.2"/>
		<rect x="58.5" y="117.7" fill="#B4E2AF" width="9.8" height="5.2"/>
	</g>
</g>
<path fill="#FFFFFF" d="M86.4,6v67.3h20.9l-43.4,48.3L20.1,73.3h21.2V6H86.4 M107.3,73.3L107.3,73.3 M86.4,0.8H41.3
	c-2.9,0-5.2,2.3-5.2,5.2v62.1h-16c-2.1,0-3.9,1.2-4.8,3.1c-0.8,1.9-0.5,4.1,0.9,5.6L60,125.1c1,1.1,2.4,1.7,3.9,1.7c0,0,0,0,0,0
	c1.5,0,2.9-0.6,3.9-1.7L111,76.9c0.9-0.9,1.4-2.2,1.4-3.6c0-2.9-2.3-5.2-5.2-5.2h0H91.6V6C91.6,3.1,89.3,0.8,86.4,0.8L86.4,0.8z"/>
</svg>
