<?xml version="1.0" encoding="utf-8"?>
<!-- Generator: Adobe Illustrator 17.1.0, SVG Export Plug-In . SVG Version: 6.00 Build 0)  -->
<!DOCTYPE svg PUBLIC "-//W3C//DTD SVG 1.1//EN" "http://www.w3.org/Graphics/SVG/1.1/DTD/svg11.dtd">
<svg version="1.1" id="Layer_1" xmlns="http://www.w3.org/2000/svg" xmlns:xlink="http://www.w3.org/1999/xlink" x="0px" y="0px"
	 width="294.6px" height="59.5px" viewBox="0 0 294.6 59.5" enable-background="new 0 0 294.6 59.5" xml:space="preserve">
<g>
	<path fill="#FFFFFF" d="M74.5,34c0.4,0.2,0.7,0.5,0.9,1c0.2,0.5,0.2,0.9,0,1.3c-1,2.4-2.6,4.5-4.9,6.4c-2.4,1.9-4.6,3-6.8,3.1h-0.5
		c-2.1,0-3.7-0.9-4.8-2.6c-0.9-1.5-1.1-3.8-0.6-6.8c0.3-2,1-4.2,1.9-6.8c-0.2,0-0.4,0-0.5,0c-0.9-0.1-1.4-0.6-1.3-1.6
		c0.1-0.4,0.2-0.7,0.3-0.9c0.1-0.2,0.3-0.4,0.6-0.5c0.3-0.1,0.5-0.2,0.6-0.2c0.2,0,0.4-0.1,0.8-0.1c0.4,0,0.6,0,0.8,0
		c2.2-5.2,4-8.8,5.6-10.9c0.7-0.8,1.4-1.5,2.4-1.9c0.9-0.5,1.7-0.4,2.5,0.1c0.8,0.5,1.1,1.3,0.8,2.4c-0.2,0.6-0.4,1.2-0.8,1.8
		c-0.8,1.2-2.5,4.1-5.2,8.6l5.3-0.1c0.5,0,0.9,0.1,1.3,0.4s0.6,0.7,0.6,1.2c0,0.5-0.1,0.9-0.4,1.3s-0.7,0.6-1.2,0.6l-1,0
		c-0.6,0-1.5,0.1-2.7,0.1c-1.2,0-2.5,0-3.9,0h-0.9c-1.1,2.9-1.8,5.3-2.1,7.2c-0.4,2.2-0.4,3.6,0.1,4.3c0.4,0.7,1.1,1,2.1,1
		c1.5-0.1,3.1-0.9,4.9-2.5c1.8-1.5,3-3.2,3.8-4.9c0.2-0.4,0.5-0.7,1-0.9C73.5,33.8,74,33.8,74.5,34z"/>
	<path fill="#FFFFFF" d="M71.7,44.2c-1-1.1-1.5-2.5-1.3-4.1c0.2-2,1.3-4.4,3.2-7.1c1.7-2.3,3.5-4,5.3-5.3c1.5-1.1,3.1-1.7,4.7-2
		c1.6-0.2,3,0,4.2,0.7c1.5,1,2.1,2.5,1.7,4.5c-0.1,0.4-0.3,0.8-0.6,1c-0.3,0.3-0.7,0.4-1.2,0.3c0.4,0.2,0.8,0.5,1,0.9
		c0.5,1,0,2.5-1.5,4.4c-0.2,0.2-0.5,0.6-1,1.2c0,0.1-0.1,0.3-0.3,0.7c-0.1,0.4-0.3,0.7-0.3,0.9c-0.2,0.8-0.3,1.3-0.2,1.5
		c0,0,0.2,0,0.5,0c2.4,0,4.9-2.4,7.3-7.1c0.2-0.4,0.6-0.7,1-0.9c0.5-0.1,0.9-0.1,1.3,0.1c0.4,0.2,0.7,0.6,0.9,1
		c0.1,0.5,0.1,0.9-0.1,1.3c-1.5,2.9-3.2,5.1-4.9,6.6c-1.7,1.5-3.5,2.3-5.6,2.3c-1.6,0-2.8-0.5-3.5-1.6c-0.2-0.4-0.3-0.7-0.4-1
		c-2.4,1.9-4.6,2.9-6.5,3h-0.2C73.9,45.8,72.7,45.3,71.7,44.2z M81,30.6c-1.5,1.1-3.1,2.7-4.6,4.7S74,39,73.9,40.4
		c0,0.6,0.1,1.1,0.4,1.5c0.3,0.4,0.8,0.5,1.3,0.5c2-0.1,4.5-1.9,7.7-5.5c0.1-0.1,0.1-0.2,0.2-0.4c0.1-0.2,0.1-0.3,0.2-0.4l0.3-0.6
		c0.4-0.9,0.8-1.6,1.1-2c0.6-0.8,1.3-1.2,2-1.2h0.1c-0.9-0.4-1.2-1-1.1-2c0.1-0.5,0-0.8-0.2-0.8c-0.3-0.2-0.6-0.2-1.1-0.2
		C83.6,29.1,82.3,29.6,81,30.6z"/>
	<path fill="#FFFFFF" d="M94.1,44.2c-1.9-2.6-1.8-6.6,0.1-11.9c1.4-3.8,3-7.7,4.9-11.7c1.9-4,3.7-7.2,5.4-9.7c0.8-1.1,1.6-2,2.6-2.6
		c1.1-0.7,2.2-0.8,3.3-0.3c1.2,0.7,1.9,1.9,2,3.9c0.1,1.5-0.2,3.4-0.9,5.6c-1.1,3.2-2.5,5.9-4.3,8.1c-2.4,3-5.4,5-9,5.9l-0.7,2
		c-1.4,4.2-1.6,7.1-0.5,8.7c0.7,0.9,1.6,1.2,2.8,1.1c1.2-0.2,2.4-0.8,3.7-1.8c0.2-0.2,0.6-0.5,1-0.9l-0.7-0.4c-1.9-1.6-2.5-3.6-2-6
		c0.3-1.1,0.8-2.1,1.6-2.9s1.6-1.3,2.6-1.5c1.8-0.4,3.2,0.3,4.4,1.9c1.1,1.5,1.1,3.5,0.1,6c1.6-0.5,2.9-1.5,4-3
		c0.2-0.4,0.6-0.7,1.1-0.8c0.5-0.1,0.9,0,1.3,0.3c0.4,0.3,0.6,0.6,0.7,1.1c0.1,0.5,0,0.9-0.2,1.3c-0.8,1.3-2,2.4-3.4,3.3
		c-1.4,0.9-2.9,1.4-4.4,1.6c-0.6,0.1-1,0.1-1.3,0.1c-2.9,3.6-5.8,5.4-8.8,5.4C97,46.7,95.3,45.9,94.1,44.2z M107.3,12.9
		c-2.3,3.2-4.7,8-7.4,14.3c3.7-1.9,6.4-5.5,8.1-10.8c0.5-1.5,0.8-2.8,0.8-3.8c0-0.5,0-0.9-0.1-1.2C108.3,11.6,107.8,12.2,107.3,12.9
		z M105.7,33.6c-0.3,0.3-0.5,0.8-0.6,1.2c-0.2,1,0,1.8,0.8,2.5c0.2,0.2,0.3,0.3,0.5,0.3c0,0,0.2-0.2,0.4-0.6
		c0.8-1.7,1.1-2.9,0.7-3.4c-0.3-0.4-0.6-0.6-0.8-0.6h-0.1C106.3,33,106,33.2,105.7,33.6z"/>
	<path fill="#FFFFFF" d="M114.1,42.7c-0.2-0.5-0.3-0.9-0.1-1.3c0.1-0.4,0.4-0.8,0.9-1c0.4-0.2,0.9-0.3,1.3-0.1
		c0.5,0.1,0.8,0.4,1,0.9c0.2,0.3,0.3,0.5,0.4,0.7c0.1,0.2,0.4,0.3,0.9,0.5c0.5,0.2,1.1,0.3,1.9,0.3c1.4,0,2.3-0.4,2.7-1.1
		c0.7-1,0.8-2.8,0.4-5.4c-0.3-1.4-0.7-3-1.3-4.8c-0.5,0.8-1,1.6-1.7,2.5c-1.4,1.8-3.2,3.6-5.3,5.5c-0.4,0.3-0.8,0.5-1.2,0.5
		c-0.5,0-0.9-0.2-1.2-0.6s-0.5-0.8-0.5-1.2c0-0.5,0.2-0.9,0.6-1.2c3.6-3.3,6-6.3,7.4-9.1c0.2-0.3,0.3-0.7,0.4-1c0-0.1,0-0.2,0-0.3
		c0-0.1,0-0.2,0-0.3c-0.1-1.2,0.2-2.1,0.9-2.5c0.8-0.6,1.6-0.6,2.3,0.1c0.8,0.6,0.9,1.7,0.5,3.3c0,0.1,0.1,0.4,0.3,1.1
		c2.9,7.3,3.3,12.5,1.3,15.5c-1.1,1.7-3,2.6-5.6,2.6C117.4,46,115.3,44.9,114.1,42.7z"/>
	<path fill="#AFAFAF" d="M142,43.9c-1.4-1.5-1.7-3.7-0.9-6.6c0.7-2.7,2.2-5.1,4.4-7.2c0.4-0.4,0.8-0.5,1.3-0.5c0.4-1.1,1.1-2,2-2.7
		c2-1.8,3.9-2.4,5.8-1.8c1.8,0.6,2.9,2.1,3.3,4.3c0.4,2,0,4.1-0.9,6.3c-0.1,0.3-0.2,0.6-0.3,0.7c1.2-0.4,2.3-1.1,3.2-2.4
		c0.3-0.4,0.7-0.6,1.2-0.6c0.5,0,0.9,0.1,1.3,0.4c0.4,0.3,0.6,0.7,0.6,1.2c0.1,0.5-0.1,0.9-0.4,1.3c-1.2,1.6-2.7,2.7-4.4,3.3
		c-1.2,0.5-2.6,0.7-4,0.5c-0.6,0.7-1.3,1.4-2.2,2.1c-2,1.6-3.8,2.6-5.4,2.9c-0.6,0.1-1,0.1-1.2,0.1C143.9,45.3,142.8,44.8,142,43.9z
		 M144.4,38.2c-0.4,1.6-0.4,2.8,0.1,3.4c0.3,0.2,0.7,0.2,1.1,0.1c1-0.2,2.4-1,3.9-2.2c0.1-0.1,0.2-0.2,0.4-0.3
		c0.2-0.2,0.3-0.3,0.4-0.3c-2-1.2-3.3-2.8-3.9-4.8C145.5,35.4,144.8,36.7,144.4,38.2z M151,29.5c-1.1,1-1.5,2.2-1.1,3.5
		c0.4,1.4,1.3,2.4,2.8,3.2c1.4-2.2,2-4.3,1.7-6.2c-0.2-0.9-0.5-1.5-1-1.6c-0.1,0-0.2,0-0.3,0C152.5,28.3,151.8,28.7,151,29.5z"/>
	<path fill="#AFAFAF" d="M163,44.8c-1-0.7-1.7-1.9-2.1-3.7c-0.2-1.1-0.3-2.5-0.2-4.2c0-0.5,0.1-1,0.1-1.5s0.1-1,0.1-1.4
		c0.1-0.4,0.1-0.8,0.2-1.1c0-0.3,0.1-0.6,0.1-0.8l0-0.3c0.1-0.5,0.4-0.8,0.8-1.1c0.4-0.3,0.8-0.4,1.3-0.3c0.5,0.1,0.8,0.4,1.1,0.8
		c0.3,0.4,0.4,0.8,0.3,1.3l0,0.2c0,0.2-0.1,0.5-0.1,0.8c0,0.3-0.1,0.7-0.1,1c0,0.4-0.1,0.8-0.1,1.3c0,0.5-0.1,1-0.1,1.4
		c-0.1,1.2,0,2.2,0.1,3c0.1,0.8,0.2,1.3,0.3,1.4c0.1,0.1,0.2,0.2,0.2,0.3c0,0,0.1,0,0.3,0c0.1,0,0.4-0.1,0.8-0.3
		c0.4-0.2,0.8-0.5,1.3-0.8c1.7-1.3,3.3-3.4,4.9-6.3c-0.2-1.6,0-3.1,0.5-4.5c0.5-1.5,1.3-2.6,2.3-3.2c0.9-0.6,1.8-0.5,2.6,0.1
		c1,0.9,1,2.3,0.1,4.1c-0.7,1.6-1.3,3-1.9,4c0.2,0.8,0.5,1.4,0.9,1.8c0.4,0.4,0.8,0.7,1.2,0.8c0.9,0.1,1.8-0.7,2.5-2.3
		c0.2-0.4,0.5-0.7,1-0.9c0.5-0.2,0.9-0.1,1.3,0.1c0.4,0.2,0.7,0.6,0.9,1c0.2,0.5,0.1,0.9-0.1,1.3c-0.7,1.4-1.5,2.5-2.5,3.2
		c-1.1,0.8-2.3,1.1-3.5,0.9c-1.3-0.2-2.4-0.8-3.3-1.9c-0.1-0.1-0.2-0.3-0.4-0.5c-1.3,2-2.8,3.6-4.4,4.9c-1.2,0.9-2.3,1.5-3.2,1.8
		c-0.4,0.1-0.8,0.2-1.2,0.2C164.3,45.3,163.6,45.2,163,44.8z"/>
	<path fill="#AFAFAF" d="M183.1,44.6c-1.3-0.6-2.2-1.5-2.9-2.8c-0.8-1.4-0.9-3.1-0.4-5c0.5-2,1.5-4.1,3.2-6.5c2.2-3,4.4-4.8,6.8-5.6
		c1.9-0.6,3.5-0.4,4.9,0.5c0.8,0.5,1.3,1.2,1.6,2.1c0.3,0.8,0.4,1.7,0.2,2.8c-0.3,1.6-1.5,3.2-3.5,4.8c-2,1.6-5.3,2.8-9.9,3.7
		c-0.1,0.6,0,1.1,0.3,1.6c0.3,0.6,0.8,1,1.5,1.3c0.7,0.3,1.4,0.5,2.2,0.5c1.6,0,3.4-0.6,5.3-1.8c1.9-1.2,3.4-3,4.4-5.3
		c0.2-0.5,0.5-0.8,1-1c0.4-0.2,0.9-0.2,1.3,0c0.4,0.2,0.7,0.5,0.9,0.9c0.2,0.4,0.2,0.9,0,1.3c-1.3,3.1-3.3,5.4-6,7.1
		c-2.3,1.4-4.6,2.2-6.9,2.2C185.6,45.5,184.3,45.2,183.1,44.6z M190.7,28.1c-1.6,0.5-3.2,1.9-4.9,4.3c-0.6,0.8-1.1,1.6-1.6,2.4
		c2.7-0.7,4.8-1.5,6.2-2.4c1.4-1,2.3-2,2.5-2.9c0.1-0.7,0-1.1-0.2-1.3c-0.2-0.1-0.5-0.2-0.9-0.2C191.5,28,191.1,28.1,190.7,28.1z"/>
	<path fill="#AFAFAF" d="M202.9,43.4c-0.6-0.8-0.8-1.9-0.6-3.2c0.2-1.2,0.7-2.7,1.5-4.5c0.9-1.9,1.4-3.2,1.2-4
		c-0.2-0.8-0.9-1.5-2.1-2.4c-0.4,0.8-0.9,1.9-1.5,3.2s-1.1,2.4-1.5,3.3c-0.4,0.9-0.6,1.4-0.7,1.4c-0.2,0.4-0.6,0.7-1,0.9
		c-0.5,0.2-0.9,0.1-1.3,0c-0.4-0.2-0.7-0.5-0.9-1c-0.2-0.5-0.1-0.9,0-1.3c0.8-1.5,2.1-4.4,4-8.7c-0.2-0.3-0.3-0.5-0.4-0.8
		c-0.4-0.9-0.3-1.9,0.2-2.7c0.3-0.6,0.8-1.1,1.4-1.3c0.6-0.2,1.2-0.2,1.8,0c0.9,0.4,1.4,1.3,1.3,2.5c0,0.2-0.1,0.6-0.2,1.2
		c2.5,1.5,3.9,3.2,4.2,5c0.3,1.4-0.2,3.5-1.5,6.1c-1,2.1-1.4,3.5-1.2,4.2c0.1,0.1,0.3,0.1,0.6,0h0.1c1.3-0.1,2.7-0.7,4.3-2
		c1.6-1.3,2.9-2.8,4-4.7c0.2-0.4,0.6-0.7,1.1-0.8s0.9,0,1.3,0.2c0.4,0.2,0.7,0.6,0.8,1.1c0.1,0.5,0,0.9-0.2,1.3
		c-1.3,2.2-2.9,4-4.9,5.6c-2.1,1.7-4.2,2.6-6.2,2.8h0h-0.4C204.7,45,203.6,44.5,202.9,43.4z"/>
	<path fill="#AFAFAF" d="M212.7,56.1c-1-1.5-1.2-4.8-0.4-9.8c0.7-4.2,1.8-8.8,3.4-13.9c1.1-3.3,2.7-7.3,5-11.8
		c2.3-4.5,4.3-8.2,6.3-10.9c0.9-1.2,1.7-2.1,2.6-2.6c1.1-0.7,2.2-0.8,3.3-0.3c1.2,0.7,1.9,1.9,2,3.9c0.1,1.6-0.3,3.4-1,5.5
		c-1.1,3.3-2.7,6.3-4.8,8.8c-1.3,1.7-2.7,3.1-4.2,4.1c-1.2,0.8-2.4,1.5-3.6,2c0.4,0.3,0.7,0.7,1,1.2c0.5,0.7,0.9,1.5,1.3,2.5
		c0.7,1.5,1.2,2.4,1.5,2.8c0.5,0.6,0.9,0.9,1.2,1c0.3,0.1,0.8-0.1,1.3-0.5c0.9-0.6,1.9-1.6,2.9-3.1c0.3-0.4,0.7-0.6,1.2-0.7
		c0.5-0.1,0.9,0,1.3,0.3c0.4,0.3,0.6,0.7,0.7,1.2c0.1,0.5,0,0.9-0.3,1.3c-2.6,3.6-5.1,5.2-7.4,5c-1-0.1-1.9-0.6-2.8-1.4
		c0,1-0.1,2.2-0.2,3.5c-0.5,3.7-1.7,6.9-3.4,9.6c-1.5,2.4-3.1,3.5-4.7,3.5C214,57.3,213.2,56.9,212.7,56.1z M215.7,46.7
		c-0.5,3.2-0.6,5.4-0.4,6.7c0.3-0.3,0.5-0.5,0.6-0.7c0.6-0.8,1.2-1.8,1.9-3.1c0.3-0.7,0.6-1.4,0.8-2.3c0.3-0.8,0.5-1.9,0.8-3.3
		c0.3-1.4,0.3-2.9,0.2-4.6c-0.1-1.7-0.4-3.3-1-5C217.4,38.4,216.4,42.5,215.7,46.7z M229.8,11.7c-2.7,3.9-5.5,9-8.3,15.5
		c2.1-1.2,3.9-2.9,5.5-5.1c1.6-2.2,2.8-4.5,3.6-7c0.5-1.4,0.7-2.7,0.8-3.9c0-0.4,0-0.8-0.1-1.1C230.9,10.4,230.4,11,229.8,11.7z"/>
	<path fill="#AFAFAF" d="M231,42.7c-1.5-2.1-1.4-5.5,0.1-10.3c1.2-3.8,2.8-7.7,4.8-11.8c2-4.3,4-7.8,5.8-10.4
		c0.8-1.2,1.7-2.1,2.5-2.6c1.2-0.7,2.3-0.8,3.3-0.2c1.3,0.6,1.9,1.8,2,3.8c0.1,1.7-0.3,3.6-1,5.6c-0.9,3-2.5,6.1-4.6,9.1
		c-2.8,3.8-5.9,6.5-9.3,7.9c-0.1,0.1-0.2,0.1-0.3,0.1c-1.1,3.5-1.3,5.8-0.5,6.9c0.3,0.4,0.9,0.6,2,0.6h0c1.2,0,2.4-0.4,3.5-1.3
		c0.4-0.3,0.7-0.5,1-0.8s0.6-0.6,0.8-1.1c0.3-0.4,0.4-0.7,0.6-0.9c0.1-0.2,0.3-0.6,0.6-1.2c0.3-0.6,0.4-0.9,0.5-1.1
		c0.2-0.4,0.5-0.7,1-0.9c0.5-0.2,0.9-0.1,1.3,0.1s0.7,0.6,0.9,1c0.2,0.5,0.1,0.9-0.1,1.3c-0.4,0.7-0.8,1.5-1.3,2.2
		c-0.5,0.8-1.2,1.6-2,2.6c-0.9,1-1.9,1.8-3.1,2.5c-1.2,0.6-2.4,0.9-3.7,0.9h0C233.6,44.7,232,44,231,42.7z M244.6,12.1
		c-2.8,4-5.7,9.6-8.5,16.8c2.1-1.5,4-3.4,5.6-5.9c1.6-2.5,2.8-4.9,3.7-7.4c0.5-1.5,0.8-2.8,0.8-3.9c0-0.5,0-0.9-0.1-1.1
		C245.6,10.9,245.1,11.4,244.6,12.1z"/>
	<path fill="#AFAFAF" d="M242,43.9c-1.4-1.5-1.7-3.7-0.9-6.6c0.7-2.7,2.2-5.1,4.4-7.2c0.4-0.4,0.8-0.5,1.3-0.5c0.4-1.1,1.1-2,2-2.7
		c2-1.8,3.9-2.4,5.8-1.8c1.8,0.6,2.9,2.1,3.3,4.3c0.4,2,0,4.1-0.9,6.3c-0.1,0.3-0.2,0.6-0.3,0.7c1.2-0.4,2.3-1.1,3.2-2.4
		c0.3-0.4,0.7-0.6,1.2-0.6c0.5,0,0.9,0.1,1.3,0.4c0.4,0.3,0.6,0.7,0.6,1.2c0.1,0.5-0.1,0.9-0.4,1.3c-1.2,1.6-2.7,2.7-4.4,3.3
		c-1.2,0.5-2.6,0.7-4,0.5c-0.6,0.7-1.3,1.4-2.2,2.1c-2,1.6-3.8,2.6-5.4,2.9c-0.6,0.1-1,0.1-1.2,0.1C243.9,45.3,242.8,44.8,242,43.9z
		 M244.5,38.2c-0.4,1.6-0.4,2.8,0.1,3.4c0.3,0.2,0.7,0.2,1.1,0.1c1-0.2,2.4-1,3.9-2.2c0.1-0.1,0.2-0.2,0.4-0.3
		c0.2-0.2,0.3-0.3,0.4-0.3c-2-1.2-3.3-2.8-3.9-4.8C245.6,35.4,244.9,36.7,244.5,38.2z M251,29.5c-1.1,1-1.5,2.2-1.1,3.5
		c0.4,1.4,1.3,2.4,2.8,3.2c1.4-2.2,2-4.3,1.7-6.2c-0.2-0.9-0.5-1.5-1-1.6c-0.1,0-0.2,0-0.3,0C252.6,28.3,251.9,28.7,251,29.5z"/>
	<path fill="#AFAFAF" d="M272.6,43.7c-0.6-0.8-0.9-2-1-3.4c-0.3,0.3-0.5,0.6-0.6,0.7c-2.3,2.6-4.4,3.9-6.3,4c-1.7,0-2.9-0.8-3.8-2.4
		c-0.8-1.4-1-3.4-0.5-5.9c0.5-2.5,1.6-5.1,3.4-7.8c0.2-0.4,0.6-0.7,1.1-0.8c0.5-0.1,0.9,0,1.3,0.2c0.4,0.3,0.6,0.6,0.7,1.1
		c0.1,0.5,0,0.9-0.2,1.3c-1.5,2.4-2.5,4.5-2.8,6.6c-0.3,1.7-0.3,2.9,0.2,3.7c0.1,0.2,0.3,0.4,0.7,0.5l1.3-0.6
		c0.8-0.6,1.7-1.3,2.5-2.3c1.8-1.9,3.2-4.4,4.4-7.5l0.6-1.9c0.2-0.5,0.5-0.8,0.9-1c0.4-0.2,0.9-0.2,1.3-0.1c0.4,0.1,0.8,0.4,1,0.8
		c0.2,0.4,0.3,0.9,0.1,1.3c-0.3,0.8-0.5,1.5-0.6,1.9c-0.5,1.7-0.8,3.4-0.9,5.1c-0.2,2-0.1,3.4,0.1,4.3c1.8-0.2,3.6-1.8,5.5-4.8
		c0.8-1.2,1.6-2.8,2.5-4.7c-0.1-1.3-0.1-2.5,0-3.4c0.2-1.3,0.7-2.2,1.5-2.5c0.8-0.5,1.6-0.4,2.3,0.2c1,0.9,1.2,2.4,0.5,4.4
		c0,0.1-0.1,0.3-0.3,0.7c-0.1,0.4-0.3,0.8-0.4,1.1c0.3,2.6,0.8,4.2,1.4,4.8c0.1,0,0.3-0.1,0.5-0.2c0.8-0.4,1.7-1.4,2.6-2.9
		c0.3-0.4,0.6-0.7,1.1-0.8c0.5-0.1,0.9,0,1.3,0.2c0.4,0.3,0.6,0.6,0.7,1.1c0.1,0.5,0,0.9-0.2,1.3c-1.3,2.1-2.6,3.4-4,4.2
		c-1.4,0.7-2.7,0.7-3.7,0.1c-0.9-0.5-1.7-1.4-2.3-2.9c0,0.1-0.2,0.4-0.6,1.1c-2.7,4.3-5.7,6.4-8.8,6.4
		C273.9,45,273.1,44.6,272.6,43.7z"/>
</g>
<g>
	<path fill="#FFFFFF" d="M36.7,7.3v25.9h8L28,51.8L11.2,33.2h8.2V7.3H36.7 M44.7,33.2L44.7,33.2 M36.7,5.3H19.3c-1.1,0-2,0.9-2,2
		v23.9h-6.2c-0.8,0-1.5,0.5-1.8,1.2c-0.3,0.7-0.2,1.6,0.3,2.2l16.8,18.6c0.4,0.4,0.9,0.7,1.5,0.7c0,0,0,0,0,0c0.6,0,1.1-0.2,1.5-0.7
		l16.7-18.5c0.3-0.4,0.6-0.8,0.6-1.4c0-1.1-0.9-2-2-2h0h-6V7.3C38.7,6.2,37.8,5.3,36.7,5.3L36.7,5.3z"/>
</g>
<g>
	<defs>
		<polygon id="SVGID_1_" points="11,33.4 27.8,52 44.9,33.4 36.5,33.4 36.5,7.5 19.1,7.5 19.1,33.4 		"/>
	</defs>
	<clipPath id="SVGID_2_">
		<use xlink:href="#SVGID_1_"  overflow="visible"/>
	</clipPath>
	<g clip-path="url(#SVGID_2_)">
		<rect x="16.8" y="10.1" fill="#B4E2AF" width="22" height="2"/>
		<rect x="16.8" y="7.3" fill="#B4E2AF" width="22" height="2"/>
		<rect x="16.8" y="13" fill="#B4E2AF" width="22" height="2"/>
		<rect x="16.8" y="15.8" fill="#B4E2AF" width="22" height="2"/>
		<rect x="16.8" y="18.6" fill="#B4E2AF" width="22" height="2"/>
		<rect x="16.8" y="21.5" fill="#B4E2AF" width="22" height="2"/>
		<rect x="16.8" y="24.3" fill="#B4E2AF" width="22" height="2"/>
		<rect x="16.8" y="27.2" fill="#B4E2AF" width="22" height="2"/>
		<rect x="16.8" y="30" fill="#B4E2AF" width="22" height="2"/>
		<rect x="11" y="32.9" fill="#B4E2AF" width="34" height="2"/>
		<polygon fill="#B4E2AF" points="41,37.7 14.8,37.7 13.2,35.7 42.8,35.7 		"/>
		<rect x="13" y="38.6" fill="#B4E2AF" width="29.6" height="2"/>
		<rect x="16.8" y="41.4" fill="#B4E2AF" width="22" height="2"/>
		<rect x="20.4" y="44.2" fill="#B4E2AF" width="14.8" height="2"/>
		<rect x="23.1" y="47.1" fill="#B4E2AF" width="9.4" height="2"/>
		<rect x="26" y="49.9" fill="#B4E2AF" width="3.7" height="2"/>
	</g>
</g>
</svg>
